<?xml version="1.0" encoding="utf-8"?>
<!-- Generator: Adobe Illustrator 18.1.1, SVG Export Plug-In . SVG Version: 6.00 Build 0)  -->
<svg version="1.1" id="Layer_1" xmlns="http://www.w3.org/2000/svg" xmlns:xlink="http://www.w3.org/1999/xlink" x="0px" y="0px"
	 viewBox="0 0 510 91.5" enable-background="new 0 0 510 91.5" xml:space="preserve">
<g>
	<g>
		<linearGradient id="SVGID_1_" gradientUnits="userSpaceOnUse" x1="246.9924" y1="23.2821" x2="246.9924" y2="65.9492">
			<stop  offset="0" style="stop-color:#FFFFFF"/>
			<stop  offset="0.175" style="stop-color:#E6E3E3"/>
			<stop  offset="0.735" style="stop-color:#ACA8A7"/>
			<stop  offset="1" style="stop-color:#979494"/>
		</linearGradient>
		<path fill="url(#SVGID_1_)" d="M234.3,23.3h7.8v36.1h17.5v6.5h-25.3V23.3z"/>
		<linearGradient id="SVGID_2_" gradientUnits="userSpaceOnUse" x1="277.8562" y1="23.2821" x2="277.8562" y2="65.9492">
			<stop  offset="0" style="stop-color:#FFFFFF"/>
			<stop  offset="0.175" style="stop-color:#E6E3E3"/>
			<stop  offset="0.735" style="stop-color:#ACA8A7"/>
			<stop  offset="1" style="stop-color:#979494"/>
		</linearGradient>
		<path fill="url(#SVGID_2_)" d="M288.8,47h-16.1v12.5h18v6.4H265V23.3h24.8v6.4h-17v11h16.1V47z"/>
		<linearGradient id="SVGID_3_" gradientUnits="userSpaceOnUse" x1="312.5823" y1="23.2821" x2="312.5823" y2="65.9492">
			<stop  offset="0" style="stop-color:#FFFFFF"/>
			<stop  offset="0.175" style="stop-color:#E6E3E3"/>
			<stop  offset="0.735" style="stop-color:#ACA8A7"/>
			<stop  offset="1" style="stop-color:#979494"/>
		</linearGradient>
		<path fill="url(#SVGID_3_)" d="M305.6,53.9l-3.7,12.1h-8l13.7-42.7h9.9l13.9,42.7h-8.4L319,53.9H305.6z M317.8,48l-3.4-10.5
			c-0.8-2.6-1.5-5.5-2.2-8h-0.1c-0.6,2.5-1.3,5.4-2,8L306.8,48H317.8z"/>
		<linearGradient id="SVGID_4_" gradientUnits="userSpaceOnUse" x1="354.9367" y1="22.9643" x2="354.9367" y2="66.3938">
			<stop  offset="0" style="stop-color:#FFFFFF"/>
			<stop  offset="0.175" style="stop-color:#E6E3E3"/>
			<stop  offset="0.735" style="stop-color:#ACA8A7"/>
			<stop  offset="1" style="stop-color:#979494"/>
		</linearGradient>
		<path fill="url(#SVGID_4_)" d="M336.7,23.9c3.5-0.5,7.8-0.9,12.4-0.9c8,0,13.4,1.6,17.4,4.9c4.2,3.4,6.7,8.5,6.7,15.7
			c0,7.7-2.6,13.3-6.6,17c-4.2,3.9-11,5.8-19.3,5.8c-4.5,0-7.9-0.3-10.5-0.6V23.9z M344.5,60.1c1.1,0.2,2.7,0.2,4.3,0.2
			c10.1,0.1,16.1-5.6,16.1-16.4c0.1-9.4-5.4-14.8-15.1-14.8c-2.5,0-4.2,0.2-5.3,0.4V60.1z"/>
		<linearGradient id="SVGID_5_" gradientUnits="userSpaceOnUse" x1="391.3427" y1="22.586" x2="391.3427" y2="66.6451">
			<stop  offset="0" style="stop-color:#FFFFFF"/>
			<stop  offset="0.175" style="stop-color:#E6E3E3"/>
			<stop  offset="0.735" style="stop-color:#ACA8A7"/>
			<stop  offset="1" style="stop-color:#979494"/>
		</linearGradient>
		<path fill="url(#SVGID_5_)" d="M379.3,57.5c2.5,1.5,6.3,2.7,10.3,2.7c4.9,0,7.7-2.3,7.7-5.8c0-3.2-2.2-5.1-7.5-7.1
			c-7.1-2.5-11.6-6.3-11.6-12.4c0-7,5.8-12.3,15.1-12.3c4.6,0,8,1,10.2,2.2l-1.8,6.3c-1.6-0.8-4.6-2-8.5-2c-4.9,0-7,2.6-7,5.1
			c0,3.3,2.5,4.8,8.2,7c7.4,2.8,11,6.5,11,12.7c0,6.9-5.2,12.8-16.1,12.8c-4.6,0-9.2-1.3-11.6-2.7L379.3,57.5z"/>
	</g>
	<g>
		<path fill="#EE7F22" d="M5.7,23.8c2.8-0.5,6.7-0.9,11.9-0.9c5.7,0,9.8,1.2,12.5,3.5c2.5,2.1,4.2,5.4,4.2,9.4c0,4-1.3,7.3-3.6,9.6
			c-3.2,3.1-8,4.6-13.5,4.6c-1.5,0-2.7-0.1-3.8-0.3v16.1H5.7V23.8z M13.5,43.7c1,0.3,2.2,0.4,3.8,0.4c5.8,0,9.4-2.9,9.4-7.9
			c0-4.8-3.3-7.2-8.7-7.2c-2.2,0-3.7,0.2-4.5,0.4V43.7z"/>
		<path fill="#EE7F22" d="M40.6,23.9c3-0.6,7.3-0.9,11.8-0.9c6.1,0,10.3,1,13.2,3.4c2.3,2,3.7,4.9,3.7,8.6c0,5.5-3.7,9.2-7.8,10.6
			v0.2c3.1,1.1,4.9,4.1,6,8.2c1.4,5.3,2.5,10.3,3.4,11.9h-8c-0.6-1.3-1.7-4.7-2.8-10.1c-1.3-5.6-3.2-7.3-7.7-7.5h-3.9v17.5h-7.7
			V23.9z M48.3,42.7h4.6c5.3,0,8.5-2.8,8.5-7c0-4.6-3.2-6.8-8.3-6.8c-2.5,0-4.1,0.2-4.8,0.4V42.7z"/>
		<path fill="#EE7F22" d="M99.9,47H83.8v12.5h18v6.4H76V23.3h24.8v6.4h-17v11h16.1V47z"/>
		<path fill="#EE7F22" d="M138.6,64.7c-1.8,0.9-5.9,1.9-11.1,1.9c-13.5,0-21.8-8.5-21.8-21.5c0-14.1,9.8-22.5,22.9-22.5
			c5.1,0,8.7,1.1,10.3,1.9l-1.6,6.2c-2-0.9-4.9-1.6-8.4-1.6c-8.7,0-14.9,5.4-14.9,15.7c0,9.4,5.4,15.4,14.9,15.4
			c3.1,0,6.4-0.6,8.5-1.5L138.6,64.7z"/>
		<path fill="#EE7F22" d="M152.5,23.3v42.7h-7.8V23.3H152.5z"/>
		<path fill="#EE7F22" d="M160.7,57.5c2.5,1.5,6.3,2.7,10.3,2.7c4.9,0,7.7-2.3,7.7-5.8c0-3.2-2.2-5.1-7.5-7.1
			c-7.1-2.5-11.6-6.3-11.6-12.4c0-7,5.8-12.3,15.1-12.3c4.6,0,8,1,10.2,2.2l-1.8,6.3c-1.6-0.8-4.6-2-8.5-2c-4.9,0-7,2.6-7,5.1
			c0,3.3,2.5,4.8,8.2,7c7.4,2.8,11,6.5,11,12.7c0,6.9-5.2,12.9-16.1,12.9c-4.6,0-9.2-1.3-11.6-2.7L160.7,57.5z"/>
		<path fill="#EE7F22" d="M217,47h-16.1v12.5h18v6.4h-25.8V23.3H218v6.4h-17v11H217V47z"/>
	</g>
	<g opacity="0.5">
		<linearGradient id="SVGID_6_" gradientUnits="userSpaceOnUse" x1="19.9914" y1="54.952" x2="19.9914" y2="22.983">
			<stop  offset="0" style="stop-color:#FFFFFF;stop-opacity:0.9"/>
			<stop  offset="0.5583" style="stop-color:#FFFFFF;stop-opacity:0"/>
		</linearGradient>
		<path fill="url(#SVGID_6_)" d="M17.2,50.1c5.5,0,10.3-1.5,13.5-4.6c2.3-2.3,3.6-5.6,3.6-9.6c0-4-1.6-7.3-4.2-9.4
			c-2.7-2.3-6.8-3.5-12.5-3.5c-5.2,0-9.1,0.4-11.9,0.9V55c2.3-0.2,4.9-0.5,7.7-0.7v-4.4C14.5,50.1,15.7,50.1,17.2,50.1z M13.4,29.4
			c0.8-0.2,2.3-0.4,4.5-0.4c5.4,0,8.7,2.5,8.7,7.2c0,4.9-3.5,7.9-9.4,7.9c-1.6,0-2.8-0.1-3.8-0.4V29.4z"/>
		<linearGradient id="SVGID_7_" gradientUnits="userSpaceOnUse" x1="54.8141" y1="52.3425" x2="54.8141" y2="22.983">
			<stop  offset="0" style="stop-color:#FFFFFF;stop-opacity:0.9"/>
			<stop  offset="0.5583" style="stop-color:#FFFFFF;stop-opacity:0"/>
		</linearGradient>
		<path fill="url(#SVGID_7_)" d="M61.3,45.8v-0.2c4.1-1.4,7.8-5.1,7.8-10.6c0-3.7-1.3-6.6-3.7-8.6c-2.9-2.4-7-3.4-13.2-3.4
			c-4.5,0-8.8,0.4-11.8,0.9v28.4c2.5-0.1,5-0.3,7.7-0.4v-3.5h3.9c2.9,0.1,4.7,0.9,6,3c2.6-0.1,5.3-0.3,8.1-0.4
			C65.2,48.5,63.6,46.7,61.3,45.8z M52.9,42.7h-4.6V29.2c0.8-0.2,2.3-0.4,4.8-0.4c5.1,0,8.3,2.2,8.3,6.8
			C61.3,39.9,58.1,42.7,52.9,42.7z"/>
		<linearGradient id="SVGID_8_" gradientUnits="userSpaceOnUse" x1="88.3685" y1="50.5888" x2="88.3685" y2="23.2987">
			<stop  offset="0" style="stop-color:#FFFFFF;stop-opacity:0.9"/>
			<stop  offset="0.5583" style="stop-color:#FFFFFF;stop-opacity:0"/>
		</linearGradient>
		<path fill="url(#SVGID_8_)" d="M99.8,47v-6.3H83.7v-11h17v-6.4H76v27.3c2.5-0.1,5.1-0.2,7.8-0.3V47H99.8z"/>
		<linearGradient id="SVGID_9_" gradientUnits="userSpaceOnUse" x1="122.3042" y1="49.5023" x2="122.3042" y2="22.6007">
			<stop  offset="0" style="stop-color:#FFFFFF;stop-opacity:0.9"/>
			<stop  offset="0.5583" style="stop-color:#FFFFFF;stop-opacity:0"/>
		</linearGradient>
		<path fill="url(#SVGID_9_)" d="M128.9,29.1c3.5,0,6.3,0.8,8.4,1.6l1.6-6.2c-1.6-0.8-5.2-1.9-10.3-1.9c-13,0-22.9,8.5-22.9,22.5
			c0,1.5,0.1,3,0.3,4.4c2.7-0.1,5.5-0.2,8.4-0.3c-0.3-1.4-0.5-2.9-0.5-4.5C113.9,34.5,120.2,29.1,128.9,29.1z"/>
		<linearGradient id="SVGID_10_" gradientUnits="userSpaceOnUse" x1="148.5452" y1="48.48" x2="148.5452" y2="23.2987">
			<stop  offset="0" style="stop-color:#FFFFFF;stop-opacity:0.9"/>
			<stop  offset="0.5583" style="stop-color:#FFFFFF;stop-opacity:0"/>
		</linearGradient>
		<path fill="url(#SVGID_10_)" d="M144.7,23.3v25.2c2.6-0.1,5.2-0.1,7.8-0.2v-25H144.7z"/>
		<linearGradient id="SVGID_11_" gradientUnits="userSpaceOnUse" x1="172.3209" y1="47.9294" x2="172.3209" y2="22.6007">
			<stop  offset="0" style="stop-color:#FFFFFF;stop-opacity:0.9"/>
			<stop  offset="0.5583" style="stop-color:#FFFFFF;stop-opacity:0"/>
		</linearGradient>
		<path fill="url(#SVGID_11_)" d="M175.7,41.2c-5.7-2.2-8.2-3.7-8.2-7c0-2.5,2.1-5.1,7-5.1c4,0,7,1.2,8.5,2l1.8-6.3
			c-2.2-1.1-5.6-2.2-10.2-2.2c-9.3,0-15.1,5.3-15.1,12.3c0,6.1,4.5,9.9,11.6,12.4c0.6,0.2,1.1,0.4,1.6,0.6c2.4,0,4.9-0.1,7.4-0.1
			c1.6,0,3.2-0.1,4.8-0.1C183.3,45,180.2,42.9,175.7,41.2z"/>
		<linearGradient id="SVGID_12_" gradientUnits="userSpaceOnUse" x1="205.4951" y1="47.6158" x2="205.4951" y2="23.2987">
			<stop  offset="0" style="stop-color:#FFFFFF;stop-opacity:0.9"/>
			<stop  offset="0.5583" style="stop-color:#FFFFFF;stop-opacity:0"/>
		</linearGradient>
		<path fill="url(#SVGID_12_)" d="M200.9,47H217v-6.3h-16.1v-11h17v-6.4h-24.8v24.3c2.6,0,5.2-0.1,7.8-0.1V47z"/>
	</g>
	<g>
		<path fill="#EC7823" d="M472.1,87.4c-4.9,0.5-9.8,0.4-14.8-0.8C462,87.8,466.9,88.3,472.1,87.4z"/>
		<path fill="#EC7823" d="M496.7,62.5c-1.7,1.5-3.1,2.8-4.8,4.4c-1.5,1.1-3,2-4.5,2.9c0,0,0,0,0,0s-2.9,2.6-9.7,4.1
			c-13,3.1-22.6-2.6-27-5.7c-2.8-2-3.4-3.5-3.4-4.4c-1-1.4-1.9-2.9-2.5-4.6c0.1-0.3,0.2-0.6,0.2-0.6c0.3,0.1,0.9,0.2,1.2,0.3
			c8.8,8,21.4,10.4,32.4,5.4c10.2-4.6,16.3-13.9,17.3-24.9c0.9-8.6-1.6-16.6-6.5-23c-1.6-0.1-3.1-2.1-3.1-2.1S478,3,460.4,3
			c0,0-16.5-1.1-29.4,13.8l0,0c-4.5,5.5-7.7,12.2-8.8,19.4c-1.9,13.1,2,26.1,10.6,36c4.8,5.6,11,9.6,18,12.1
			c0.7,0.3,1.5,0.6,2.2,0.9c-5.5-2.2-10.6-4.9-15.4-8.7c-6.7-5.8-11.4-13.3-13.9-22.3c-4.2-16.4,1.3-33.5,15.7-43.6
			c8.5-5.7,18-7.8,28.2-6.1c7,1.2,12.7,4.7,17.9,10.1c2,2.2,3.6,4.5,4.9,7c0.7-0.1,0.9,0.3,0.9,0.3c12.4,27.5-10.7,39.8-10.7,39.8
			c-18.8,8.9-29.2-2.9-29.2-2.9s-1.8-2.1-2.4-4.9c-0.1-0.6-0.2-1-0.1-1.2c-2.3-3.7-3.3-8.1-2.4-12.7c0.8-4.1,2.4-7.7,5.5-10.5
			c2.5-2,3.3-2.9,7.7-3.7c4.5-0.6,7.6,0.8,9,1.9c1.1,0.9,1.4,1.1,2.7,3.8c1-4.2-1.7-7.1-3.2-7.8c-0.3-0.2-0.5-0.3-0.8-0.5
			c0.2,0.3,0.4,0.6,0.4,0.9c0.3,1.5-5-3.3-14.5,1.1c0,0-15.8,6.5-9.4,27.5c0,0,1.8,4.7,6.7,6.7c0,0-8,0-12.9-6.8
			c0.3,0.9,0.5,1.7,0.8,2.6c3.4,8.5,9.7,14.6,18.1,17.8c9.3,3.5,19.4,3.2,28.5-1.3c10-5,17.5-13.2,20.4-24.1
			C503.8,53.1,500.5,58.2,496.7,62.5z"/>
		<path fill="#EC7823" d="M450.7,68.1c4.3,3.1,13.9,8.8,27,5.7c6.8-1.6,9.7-4.1,9.7-4.1s0,0,0,0c-8.9,4.9-19,5.9-28.7,2.2
			c-4.4-1.7-8.6-4.3-11.4-8.1C447.3,64.6,447.9,66.2,450.7,68.1z"/>
		<path fill="#EC7823" d="M457.3,86.6c-1.5-0.4-2.9-0.9-4.4-1.4c0.2,0.1,0.3,0.1,0.5,0.2C454.7,85.9,456,86.3,457.3,86.6z"/>
		<path fill="#EC7823" d="M450.3,59.3c-4.8-2-6.7-6.7-6.7-6.7c-6.4-21,9.4-27.5,9.4-27.5c9.5-4.4,14.7,0.3,14.5-1.1
			c-0.1-0.3-0.2-0.6-0.4-0.9c-8.4-4.6-22.7-1.1-28.4,10.5c-3.1,6.2-3.1,12.4-1.3,18.9C442.3,59.3,450.3,59.3,450.3,59.3z"/>
		<linearGradient id="SVGID_13_" gradientUnits="userSpaceOnUse" x1="453.9042" y1="18.7525" x2="448.2388" y2="59.064">
			<stop  offset="4.907980e-02" style="stop-color:#FFFFFF;stop-opacity:0"/>
			<stop  offset="0.4601" style="stop-color:#FFFFFF;stop-opacity:0.9"/>
			<stop  offset="0.908" style="stop-color:#FFFFFF;stop-opacity:0"/>
		</linearGradient>
		<path fill="url(#SVGID_13_)" d="M450.3,59.3c-4.8-2-6.7-6.7-6.7-6.7c-6.4-21,9.4-27.5,9.4-27.5c9.5-4.4,14.7,0.3,14.5-1.1
			c-0.1-0.3-0.2-0.6-0.4-0.9c-8.4-4.6-22.7-1.1-28.4,10.5c-3.1,6.2-3.1,12.4-1.3,18.9C442.3,59.3,450.3,59.3,450.3,59.3z"/>
		<path fill="#EC7823" d="M448.8,53.9c0.7,2.8,2.4,4.9,2.4,4.9s10.5,11.8,29.2,2.9c0,0,23-12.3,10.7-39.8c0,0-0.3-0.4-0.9-0.3
			c1.6,3.1,2.8,6.5,3.4,10.1c1.2,8-1.3,15.9-6.3,22.2c-6.7,7.8-17.3,11.3-27.3,7.9c-4.6-1.8-8.7-5.1-11.3-9.2
			C448.6,52.9,448.6,53.3,448.8,53.9z"/>
		<linearGradient id="SVGID_14_" gradientUnits="userSpaceOnUse" x1="483.9885" y1="59.4195" x2="468.3438" y2="36.2253">
			<stop  offset="0" style="stop-color:#FFFFFF;stop-opacity:0.5"/>
			<stop  offset="0.5583" style="stop-color:#FFFFFF;stop-opacity:0"/>
		</linearGradient>
		<path fill="url(#SVGID_14_)" d="M448.8,53.9c0.7,2.8,2.4,4.9,2.4,4.9s10.5,11.8,29.2,2.9c0,0,23-12.3,10.7-39.8
			c0,0-0.3-0.4-0.9-0.3c1.6,3.1,2.8,6.5,3.4,10.1c1.2,8-1.3,15.9-6.3,22.2c-6.7,7.8-17.3,11.3-27.3,7.9c-4.6-1.8-8.7-5.1-11.3-9.2
			C448.6,52.9,448.6,53.3,448.8,53.9z"/>
		<path fill="#EC7823" d="M460.4,3c17.6,0,25.9,11.2,25.9,11.2s1.5,2,3.1,2.1c-3.1-4-7.1-7.4-11.9-9.8c-5.6-2.8-11.2-4-17.5-4
			c-11.6,0.1-22,5.8-29.1,14.3l0,0C443.9,1.9,460.4,3,460.4,3z"/>
		<linearGradient id="SVGID_15_" gradientUnits="userSpaceOnUse" x1="458.6379" y1="2.0422" x2="460.4596" y2="19.3751">
			<stop  offset="0" style="stop-color:#FFFFFF;stop-opacity:0.8"/>
			<stop  offset="0.5583" style="stop-color:#FFFFFF;stop-opacity:0"/>
		</linearGradient>
		<path opacity="0.5" fill="url(#SVGID_15_)" d="M460.4,3c17.6,0,25.9,11.2,25.9,11.2s1.5,2,3.1,2.1c-3.1-4-7.1-7.4-11.9-9.8
			c-5.6-2.8-11.2-4-17.5-4c-11.6,0.1-22,5.8-29.1,14.3l0,0C443.9,1.9,460.4,3,460.4,3z"/>
	</g>
</g>
</svg>
